name analog
datacolumns 19
datarows 58
range 0.157 0.1855
endheader
time	ground_force_vx	ground_force_vy	ground_force_vz	ground_force_px	ground_force_py	ground_force_pz	l_ground_force_vx	l_ground_force_vy	l_ground_force_vz	l_ground_force_px	l_ground_force_py	l_ground_force_pz	ground_torque_x	ground_torque_y	ground_torque_z	l_ground_torque_x	l_ground_torque_y	l_ground_torque_z
0.157	-0.0	-0.0	-0.0	-0.0	-0.0	-0.0	3.294349193572998	-6.815166473388672	-511.157958984375	-0.0	-0.0	-0.0	-0.0	-0.0	-0.0	176335.25	-39240.37109375	1040.465087890625
0.1575	-0.0	-0.0	-0.0	-0.0	-0.0	-0.0	3.804615259170532	-6.175089359283447	-512.5643310546875	-0.0	-0.0	-0.0	-0.0	-0.0	-0.0	176705.875	-38702.77734375	950.3866577148438
0.158	-0.0	-0.0	-0.0	-0.0	-0.0	-0.0	3.8171236515045166	-4.602921962738037	-512.5646362304688	-0.0	-0.0	-0.0	-0.0	-0.0	-0.0	176890.578125	-39096.15234375	891.466796875
0.1585	-0.0	-0.0	-0.0	-0.0	-0.0	-0.0	4.177275657653809	-4.156342029571533	-512.5442504882812	-0.0	-0.0	-0.0	-0.0	-0.0	-0.0	177188.296875	-39192.5	918.8690795898438
0.159	-0.0	-0.0	-0.0	-0.0	-0.0	-0.0	4.449039936065674	-3.709510803222656	-509.4547424316406	-0.0	-0.0	-0.0	-0.0	-0.0	-0.0	176895.25	-38834.44140625	805.8596801757812
0.1595	-0.0	-0.0	-0.0	-0.0	-0.0	-0.0	4.435539245605469	-2.5806515216827397	-508.0046997070313	-0.0	-0.0	-0.0	-0.0	-0.0	-0.0	176369.546875	-38779.24609375	806.20947265625
0.16	-0.0	-0.0	-0.0	-0.0	-0.0	-0.0	4.618613243103027	-2.6496505737304688	-507.3395690917969	-0.0	-0.0	-0.0	-0.0	-0.0	-0.0	175791.296875	-38651.15625	830.3695678710938
0.1605	-0.0	-0.0	-0.0	-0.0	-0.0	-0.0	4.515539646148682	-2.202260732650757	-506.2469787597656	-0.0	-0.0	-0.0	-0.0	-0.0	-0.0	175233.53125	-38476.96484375	831.303466796875
0.161	-0.0	-0.0	-0.0	-0.0	-0.0	-0.0	4.080696105957031	-2.02844500541687	-503.790771484375	-0.0	-0.0	-0.0	-0.0	-0.0	-0.0	174940.546875	-38212.62890625	769.6838989257812
0.1615	-0.0	-0.0	-0.0	-0.0	-0.0	-0.0	3.814563751220703	-1.769464135169983	-500.3941955566406	-0.0	-0.0	-0.0	-0.0	-0.0	-0.0	174076.578125	-37540.07421875	736.73974609375
0.162	-0.0	-0.0	-0.0	-0.0	-0.0	-0.0	3.548431396484375	-1.4223997592926023	-498.9376831054688	-0.0	-0.0	-0.0	-0.0	-0.0	-0.0	173787.625	-37657.42578125	357.09490966796875
0.1625	-0.0	-0.0	-0.0	-0.0	-0.0	-0.0	3.104877471923828	-1.321687936782837	-497.2662963867188	-0.0	-0.0	-0.0	-0.0	-0.0	-0.0	173384.640625	-37393.4765625	187.2327880859375
0.163	-0.0	-0.0	-0.0	-0.0	-0.0	-0.0	1.8919811248779297	-0.801323413848877	-496.8427734375	-0.0	-0.0	-0.0	-0.0	-0.0	-0.0	173235.375	-37113.640625	-90.00909423828125
0.1635	-0.0	-0.0	-0.0	-0.0	-0.0	-0.0	2.125758171081543	-1.2266448736190796	-498.5365295410156	-0.0	-0.0	-0.0	-0.0	-0.0	-0.0	173441.0625	-36652.171875	-292.1289367675781
0.164	-0.0	-0.0	-0.0	-0.0	-0.0	-0.0	1.2520151138305664	-1.0398203134536743	-497.50146484375	-0.0	-0.0	-0.0	-0.0	-0.0	-0.0	173518.296875	-36745.96484375	-507.0277404785156
0.1645	-0.0	-0.0	-0.0	-0.0	-0.0	-0.0	0.2798596024513244	-0.699739933013916	-498.5479736328125	-0.0	-0.0	-0.0	-0.0	-0.0	-0.0	174023.484375	-36445.9765625	-716.5059204101562
0.165	-0.0	-0.0	-0.0	-0.0	-0.0	-0.0	0.2731025218963623	-0.5368697047233582	-497.8764953613281	-0.0	-0.0	-0.0	-0.0	-0.0	-0.0	173950.640625	-36567.39453125	-1037.01806640625
0.1655	-0.0	-0.0	-0.0	-0.0	-0.0	-0.0	-0.0708998143672943	-0.861937403678894	-497.2619934082031	-0.0	-0.0	-0.0	-0.0	-0.0	-0.0	173973.640625	-36456.26953125	-1182.0662841796875
0.166	-0.0	-0.0	-0.0	-0.0	-0.0	-0.0	0.1774215698242187	-0.875978946685791	-500.1912231445313	-0.0	-0.0	-0.0	-0.0	-0.0	-0.0	173960.5625	-36164.9921875	-1161.855712890625
0.1665	-0.0	-0.0	-0.0	-0.0	-0.0	-0.0	-0.2698302567005157	-0.9678568243980408	-495.5189514160156	-0.0	-0.0	-0.0	-0.0	-0.0	-0.0	174028.3125	-35904.94140625	-1156.0987548828125
0.167	-0.0	-0.0	-0.0	-0.0	-0.0	-0.0	-0.0849357545375824	-0.5336886048316956	-499.5171203613281	-0.0	-0.0	-0.0	-0.0	-0.0	-0.0	174073.09375	-35985.4453125	-1363.4793701171875
0.1675	-0.0	-0.0	-0.0	-0.0	-0.0	-0.0	-0.1620319187641143	-0.5299301147460938	-497.9204711914063	-0.0	-0.0	-0.0	-0.0	-0.0	-0.0	173764.53125	-35597.71875	-1311.900390625
0.168	-0.0	-0.0	-0.0	-0.0	-0.0	-0.0	-0.1813318282365799	-0.9676454067230223	-498.5269470214844	-0.0	-0.0	-0.0	-0.0	-0.0	-0.0	174408.90625	-35244.421875	-1449.989990234375
0.1685	-0.0	-0.0	-0.0	-0.0	-0.0	-0.0	-0.3468683958053589	-1.0519204139709473	-498.6041870117188	-0.0	-0.0	-0.0	-0.0	-0.0	-0.0	174103.90625	-35028.55859375	-1687.3641357421875
0.169	-0.0	-0.0	-0.0	-0.0	-0.0	-0.0	-0.1008618474006652	-1.152214527130127	-496.509521484375	-0.0	-0.0	-0.0	-0.0	-0.0	-0.0	173651.859375	-34716.65625	-1577.97607421875
0.1695	-0.0	-0.0	-0.0	-0.0	-0.0	-0.0	-0.0887107849121093	-1.497359275817871	-497.8576965332031	-0.0	-0.0	-0.0	-0.0	-0.0	-0.0	173977.53125	-34324.52734375	-1625.0645751953125
0.17	-0.0	-0.0	-0.0	-0.0	-0.0	-0.0	-0.2535326182842254	-1.3922395706176758	-497.2249450683594	-0.0	-0.0	-0.0	-0.0	-0.0	-0.0	173650.234375	-34220.35546875	-1576.9412841796875
0.1705	-0.0	-0.0	-0.0	-0.0	-0.0	-0.0	-0.0759200155735015	-1.7706786394119265	-496.1612548828125	-0.0	-0.0	-0.0	-0.0	-0.0	-0.0	173739.4375	-34094.625	-1572.6978759765625
0.171	-0.0	-0.0	-0.0	-0.0	-0.0	-0.0	0.3418210446834564	-2.300685405731201	-497.2944030761719	-0.0	-0.0	-0.0	-0.0	-0.0	-0.0	173696.96875	-34042.9765625	-1539.9683837890625
0.1715	-0.0	-0.0	-0.0	-0.0	-0.0	-0.0	0.346017062664032	-2.8219003677368164	-498.9376831054688	-0.0	-0.0	-0.0	-0.0	-0.0	-0.0	173670.59375	-33599.81640625	-1658.70556640625
0.17200000000000001	-0.0	-0.0	-0.0	-0.0	-0.0	-0.0	0.0134012699127197	-3.532867431640625	-498.9376831054688	-0.0	-0.0	-0.0	-0.0	-0.0	-0.0	173584.46875	-33842.1796875	-1743.5975341796875
0.17250000000000001	-0.0	-0.0	-0.0	-0.0	-0.0	-0.0	-0.3548431396484375	-4.221343994140625	-500.26275634765625	-0.0	-0.0	-0.0	-0.0	-0.0	-0.0	173808.0625	-33411.67578125	-1641.9639892578125
0.17300000000000001	-0.0	-0.0	-0.0	-0.0	-0.0	-0.0	-0.0046169236302375	-4.667259216308594	-501.0144348144531	-0.0	-0.0	-0.0	-0.0	-0.0	-0.0	173902.546875	-33306.88671875	-1721.7030029296875
0.17350000000000002	-0.0	-0.0	-0.0	-0.0	-0.0	-0.0	0.1774215698242187	-5.550245761871338	-503.8073425292969	-0.0	-0.0	-0.0	-0.0	-0.0	-0.0	174095.765625	-33194.90625	-1834.1754150390625
0.17400000000000002	-0.0	-0.0	-0.0	-0.0	-0.0	-0.0	0.1726740896701812	-5.889193058013916	-504.2123107910156	-0.0	-0.0	-0.0	-0.0	-0.0	-0.0	174070.03125	-33522.30859375	-1664.146728515625
0.17450000000000002	-0.0	-0.0	-0.0	-0.0	-0.0	-0.0	0.2613309323787689	-6.001094341278076	-506.9870300292969	-0.0	-0.0	-0.0	-0.0	-0.0	-0.0	174779.625	-33415.85546875	-1595.1688232421875
0.17500000000000002	-0.0	-0.0	-0.0	-0.0	-0.0	-0.0	0.6999292373657227	-6.874520301818848	-508.3839416503906	-0.0	-0.0	-0.0	-0.0	-0.0	-0.0	174950.078125	-33329.7734375	-1367.425537109375
0.17550000000000002	-0.0	-0.0	-0.0	-0.0	-0.0	-0.0	0.877223551273346	-7.60550594329834	-511.099609375	-0.0	-0.0	-0.0	-0.0	-0.0	-0.0	174801.578125	-33367.60546875	-1217.5335693359375
0.176	-0.0	-0.0	-0.0	-0.0	-0.0	-0.0	1.0645294189453125	-9.003829002380371	-510.7694396972656	-0.0	-0.0	-0.0	-0.0	-0.0	-0.0	174171.03125	-33024.45703125	-1018.4747924804688
0.1765	-0.0	-0.0	-0.0	-0.0	-0.0	-0.0	1.1481584310531616	-9.710326194763184	-509.4522399902344	-0.0	-0.0	-0.0	-0.0	-0.0	-0.0	173611.484375	-32903.7734375	-837.3408203125
0.177	-0.0	-0.0	-0.0	-0.0	-0.0	-0.0	1.41937255859375	-11.133655548095703	-510.4596557617188	-0.0	-0.0	-0.0	-0.0	-0.0	-0.0	172964.828125	-32436.599609375	-739.9783935546875
0.1775	-0.0	-0.0	-0.0	-0.0	-0.0	-0.0	1.847259283065796	-12.70272445678711	-506.6806945800781	-0.0	-0.0	-0.0	-0.0	-0.0	-0.0	172113.203125	-32061.591796875	-539.3580932617188
0.178	-0.0	-0.0	-0.0	-0.0	-0.0	-0.0	1.607346534729004	-13.2219877243042	-506.5359497070313	-0.0	-0.0	-0.0	-0.0	-0.0	-0.0	170903.1875	-31671.21875	-391.37640380859375
0.1785	-0.0	-0.0	-0.0	-0.0	-0.0	-0.0	1.7795459032058716	-13.788796424865724	-503.560546875	-0.0	-0.0	-0.0	-0.0	-0.0	-0.0	169500.046875	-31347.232421875	-445.4149475097656
0.179	-0.0	-0.0	-0.0	-0.0	-0.0	-0.0	1.4410018920898438	-14.589228630065918	-503.3914794921875	-0.0	-0.0	-0.0	-0.0	-0.0	-0.0	168452.21875	-30736.53515625	-471.8809814453125
0.1795	-0.0	-0.0	-0.0	-0.0	-0.0	-0.0	1.408413290977478	-15.290562629699709	-498.6316223144531	-0.0	-0.0	-0.0	-0.0	-0.0	-0.0	167018.90625	-30103.19921875	-325.5218811035156
0.18	-0.0	-0.0	-0.0	-0.0	-0.0	-0.0	1.4359740018844604	-15.654976844787598	-493.0674133300781	-0.0	-0.0	-0.0	-0.0	-0.0	-0.0	165116.21875	-29295.935546875	-505.3933410644531
0.1805	-0.0	-0.0	-0.0	-0.0	-0.0	-0.0	1.0420856475830078	-16.052202224731445	-489.99224853515625	-0.0	-0.0	-0.0	-0.0	-0.0	-0.0	164236.625	-28667.6640625	-652.1924438476562
0.181	-0.0	-0.0	-0.0	-0.0	-0.0	-0.0	0.8814339637756348	-15.225223541259766	-489.1167602539063	-0.0	-0.0	-0.0	-0.0	-0.0	-0.0	163282.96875	-28327.6953125	-800.3748779296875
0.1815	-0.0	-0.0	-0.0	-0.0	-0.0	-0.0	0.2546303868293762	-14.7325439453125	-485.80572509765625	-0.0	-0.0	-0.0	-0.0	-0.0	-0.0	162452.90625	-27909.080078125	-1075.3126220703125
0.182	-0.0	-0.0	-0.0	-0.0	-0.0	-0.0	-0.8216916918754578	-14.02575397491455	-486.7861022949219	-0.0	-0.0	-0.0	-0.0	-0.0	-0.0	162459.015625	-27472.515625	-1348.765625
0.1825	-0.0	-0.0	-0.0	-0.0	-0.0	-0.0	-1.6085484027862549	-13.00669288635254	-485.6467895507813	-0.0	-0.0	-0.0	-0.0	-0.0	-0.0	161820.734375	-26903.1875	-1831.8265380859373
0.183	-0.0	-0.0	-0.0	-0.0	-0.0	-0.0	-2.489856243133545	-12.382820129394531	-483.9006958007813	-0.0	-0.0	-0.0	-0.0	-0.0	-0.0	161446.140625	-26157.525390625	-2160.435791015625
0.1835	-0.0	-0.0	-0.0	-0.0	-0.0	-0.0	-2.596720695495605	-11.329177856445312	-482.734375	-0.0	-0.0	-0.0	-0.0	-0.0	-0.0	160537.703125	-25465.94921875	-2148.5966796875
0.184	-0.0	-0.0	-0.0	-0.0	-0.0	-0.0	-3.4353959560394287	-10.610711097717283	-479.1556701660156	-0.0	-0.0	-0.0	-0.0	-0.0	-0.0	159655.34375	-25136.501953125	-2372.1611328125
0.1845	-0.0	-0.0	-0.0	-0.0	-0.0	-0.0	-3.7196946144104	-10.087065696716309	-477.61517333984375	-0.0	-0.0	-0.0	-0.0	-0.0	-0.0	158744.46875	-24454.494140625	-2520.47314453125
0.185	-0.0	-0.0	-0.0	-0.0	-0.0	-0.0	-4.175637722015381	-9.596047401428224	-474.7971496582031	-0.0	-0.0	-0.0	-0.0	-0.0	-0.0	157720.40625	-23770.052734375	-2566.931884765625
0.1855	-0.0	-0.0	-0.0	-0.0	-0.0	-0.0	-5.379818916320801	-8.775247573852539	-471.3050231933594	-0.0	-0.0	-0.0	-0.0	-0.0	-0.0	156837.734375	-23043.591796875	-3000.013916015625
